<svg width="454" height="280" viewBox="0 0 454 280" fill="none" xmlns="http://www.w3.org/2000/svg">
<path d="M454 20.0788C454 8.98929 445.001 1.94516e-05 433.899 1.89663e-05L20.1007 8.78631e-07C9.0026 3.93516e-07 -3.92933e-07 8.98927 -8.77671e-07 20.0788L0.68102 259.061C0.680456 259.123 0.677499 259.184 0.677499 259.246C0.677499 270.332 9.67664 279.325 20.7782 279.325L171.331 280C182.436 280 191.437 271.007 191.437 259.921L206.899 153.492L207.235 153.492C208.937 144.126 217.132 137.016 227 137.016C236.868 137.016 245.058 144.126 246.76 153.492L247.101 153.492L262.563 259.921C262.563 271.007 271.566 280 282.664 280L433.899 279.325C445.001 279.325 454 270.332 454 259.246L454 20.0788ZM392.449 153.492C392.449 183.084 368.437 207.07 338.813 207.07C309.185 207.07 285.171 183.084 285.171 153.492C285.171 123.9 309.185 99.9146 338.813 99.9146C368.437 99.9146 392.449 123.9 392.449 153.492ZM170 153.492C170 183.084 145.984 207.07 116.363 207.07C86.7356 207.07 62.7219 183.084 62.7219 153.492C62.7219 123.9 86.7356 99.9146 116.363 99.9146C145.984 99.9146 170 123.9 170 153.492Z" fill="#F3EFF5"/>
</svg>
