<svg width="40" height="40" viewBox="0 0 40 40" fill="none" xmlns="http://www.w3.org/2000/svg">
<path d="M21.8602 1.90479C23.8958 1.91021 24.929 1.92107 25.8211 1.9464L26.1721 1.95907C26.5774 1.97355 26.9773 1.99164 27.4604 2.01335C29.3857 2.10383 30.6993 2.40782 31.8519 2.85476C33.0461 3.31437 34.0522 3.93683 35.0582 4.94109C35.9787 5.84535 36.6907 6.93961 37.1445 8.14749C37.5914 9.30013 37.8954 10.6138 37.9859 12.5409C38.0076 13.0222 38.0257 13.4221 38.0402 13.8293L38.051 14.1803C38.0782 15.0706 38.089 16.1038 38.0927 18.1394L38.0945 19.4893V21.8597C38.0989 23.1796 38.085 24.4994 38.0528 25.8189L38.042 26.1699C38.0275 26.577 38.0094 26.9769 37.9877 27.4583C37.8972 29.3854 37.5896 30.6972 37.1445 31.8517C36.6907 33.0596 35.9787 34.1538 35.0582 35.0581C34.154 35.9785 33.0598 36.6906 31.8519 37.1444C30.6993 37.5913 29.3857 37.8953 27.4604 37.9858L26.1721 38.0401L25.8211 38.051C24.929 38.0763 23.8958 38.089 21.8602 38.0926L20.5104 38.0944H18.1419C16.8214 38.099 15.501 38.0852 14.181 38.0528L13.83 38.0419C13.4004 38.0256 12.971 38.0069 12.5417 37.9858C10.6164 37.8953 9.30277 37.5913 8.14836 37.1444C6.94116 36.6903 5.84756 35.9783 4.94385 35.0581C4.02275 34.154 3.31013 33.0597 2.85577 31.8517C2.40884 30.699 2.10485 29.3854 2.01438 27.4583L1.9601 26.1699L1.95105 25.8189C1.9177 24.4994 1.90262 23.1796 1.90581 21.8597V18.1394C1.90081 16.8196 1.91408 15.4998 1.94562 14.1803L1.95829 13.8293C1.97276 13.4221 1.99086 13.0222 2.01257 12.5409C2.10304 10.6138 2.40703 9.30194 2.85396 8.14749C3.30938 6.93912 4.02325 5.84481 4.94566 4.94109C5.84885 4.02106 6.9418 3.30907 8.14836 2.85476C9.30277 2.40782 10.6146 2.10383 12.5417 2.01335C13.023 1.99164 13.4247 1.97355 13.83 1.95907L14.181 1.94821C15.5004 1.91606 16.8202 1.90219 18.14 1.90659L21.8602 1.90479ZM20.0001 10.9522C17.6007 10.9522 15.2995 11.9054 13.6028 13.6021C11.9062 15.2988 10.953 17.6001 10.953 19.9996C10.953 22.3991 11.9062 24.7003 13.6028 26.3971C15.2995 28.0938 17.6007 29.047 20.0001 29.047C22.3996 29.047 24.7008 28.0938 26.3974 26.3971C28.0941 24.7003 29.0473 22.3991 29.0473 19.9996C29.0473 17.6001 28.0941 15.2988 26.3974 13.6021C24.7008 11.9054 22.3996 10.9522 20.0001 10.9522ZM20.0001 14.5711C20.713 14.571 21.4189 14.7113 22.0775 14.984C22.7362 15.2567 23.3346 15.6565 23.8388 16.1605C24.3429 16.6645 24.7429 17.2628 25.0158 17.9214C25.2887 18.5799 25.4292 19.2858 25.4293 19.9987C25.4295 20.7116 25.2892 21.4175 25.0165 22.0761C24.7438 22.7348 24.344 23.3333 23.8401 23.8374C23.3361 24.3416 22.7377 24.7415 22.0792 25.0145C21.4207 25.2874 20.7148 25.4279 20.0019 25.428C18.5623 25.428 17.1816 24.8561 16.1636 23.8381C15.1456 22.82 14.5737 21.4393 14.5737 19.9996C14.5737 18.5599 15.1456 17.1791 16.1636 16.1611C17.1816 15.1431 18.5623 14.5711 20.0019 14.5711M29.5015 8.23796C28.9016 8.23796 28.3263 8.47627 27.9021 8.90045C27.478 9.32462 27.2397 9.89994 27.2397 10.4998C27.2397 11.0997 27.478 11.675 27.9021 12.0992C28.3263 12.5234 28.9016 12.7617 29.5015 12.7617C30.1013 12.7617 30.6766 12.5234 31.1008 12.0992C31.525 11.675 31.7633 11.0997 31.7633 10.4998C31.7633 9.89994 31.525 9.32462 31.1008 8.90045C30.6766 8.47627 30.1013 8.23796 29.5015 8.23796Z" fill="#F3EFF5"/>
</svg>
