<svg width="40" height="40" viewBox="0 0 40 40" fill="none" xmlns="http://www.w3.org/2000/svg">
<path d="M29.8401 1.90833H10.1601C7.97163 1.90833 5.87279 2.77769 4.3253 4.32518C2.77782 5.87266 1.90845 7.97151 1.90845 10.16V29.84C1.90845 32.0285 2.77782 34.1273 4.3253 35.6748C5.87279 37.2223 7.97163 38.0917 10.1601 38.0917H29.8401C32.0286 38.0917 34.1274 37.2223 35.6749 35.6748C37.2224 34.1273 38.0918 32.0285 38.0918 29.84V10.16C38.0918 7.97151 37.2224 5.87266 35.6749 4.32518C34.1274 2.77769 32.0286 1.90833 29.8401 1.90833ZM14.1421 31.1185C14.1479 31.2195 14.133 31.3206 14.0984 31.4156C14.0637 31.5107 14.0099 31.5976 13.9404 31.6711C13.8709 31.7446 13.7871 31.8031 13.6942 31.8431C13.6012 31.883 13.5011 31.9035 13.3999 31.9034H10.097C9.89783 31.8985 9.7085 31.8157 9.56972 31.6728C9.43093 31.5298 9.35376 31.3381 9.35479 31.1389V17.4022C9.35206 17.303 9.36925 17.2043 9.40532 17.1119C9.4414 17.0195 9.49564 16.9352 9.56483 16.8641C9.63403 16.793 9.71677 16.7365 9.80818 16.698C9.89959 16.6594 9.9978 16.6395 10.097 16.6396H13.3999C13.4991 16.6395 13.5973 16.6594 13.6887 16.698C13.7801 16.7365 13.8629 16.793 13.9321 16.8641C14.0013 16.9352 14.0555 17.0195 14.0916 17.1119C14.1277 17.2043 14.1449 17.303 14.1421 17.4022V31.1185ZM11.6872 13.7505C11.3296 13.7478 10.9761 13.6747 10.6467 13.5354C10.3174 13.3961 10.0187 13.1932 9.76773 12.9385C9.51677 12.6837 9.31844 12.3821 9.18407 12.0507C9.04971 11.7193 8.98193 11.3646 8.98461 11.007C8.98729 10.6494 9.06038 10.2959 9.1997 9.96654C9.33902 9.63719 9.54185 9.33851 9.7966 9.08755C10.0513 8.83659 10.353 8.63826 10.6844 8.50389C11.0158 8.36952 11.3705 8.30174 11.728 8.30442C12.4378 8.32751 13.1105 8.62706 13.6025 9.13916C14.0945 9.65126 14.3669 10.3354 14.3616 11.0455C14.3563 11.7556 14.0736 12.4356 13.574 12.9402C13.0744 13.4449 12.3973 13.7343 11.6872 13.7468M31.7588 31.0962C31.7579 31.2837 31.6843 31.4635 31.5535 31.5978C31.4226 31.7321 31.2448 31.8104 31.0574 31.8162H27.5708C27.3831 31.8104 27.2049 31.7319 27.074 31.5972C26.9432 31.4625 26.8698 31.2822 26.8694 31.0944V24.7409C26.8694 23.7927 27.1588 20.616 24.3532 20.616C22.1655 20.616 21.7332 22.8427 21.6497 23.8336V31.2391C21.6498 31.4272 21.5766 31.608 21.4457 31.7431C21.3147 31.8782 21.1363 31.957 20.9483 31.9628H17.5656C17.374 31.9623 17.1904 31.8858 17.0551 31.7501C16.9198 31.6145 16.8438 31.4307 16.8438 31.2391V17.3354C16.8496 17.1474 16.9284 16.969 17.0635 16.838C17.1986 16.7071 17.3793 16.6339 17.5675 16.634H20.9483C21.1364 16.6339 21.3172 16.7071 21.4523 16.838C21.5874 16.969 21.6662 17.1474 21.672 17.3354V18.5322C22.1656 17.8097 22.8471 17.2357 23.6431 16.8721C24.439 16.5085 25.3191 16.369 26.1884 16.4689C31.82 16.4689 31.7996 21.7294 31.7996 24.7205L31.7588 31.0962Z" fill="#F3EFF5"/>
</svg>
