<svg width="24" height="24" viewBox="0 0 24 24" fill="none" xmlns="http://www.w3.org/2000/svg">
<path d="M13.1161 1.14282C14.3375 1.14608 14.9574 1.15259 15.4926 1.16779L15.7032 1.17539C15.9464 1.18408 16.1863 1.19494 16.4762 1.20796C17.6313 1.26225 18.4195 1.44464 19.1111 1.71281C19.8276 1.98857 20.4313 2.36205 21.0349 2.96461C21.5872 3.50716 22.0144 4.16372 22.2867 4.88845C22.5548 5.58003 22.7372 6.36824 22.7915 7.5245C22.8045 7.81329 22.8154 8.05323 22.8241 8.29751L22.8306 8.50813C22.8469 9.04229 22.8534 9.66222 22.8555 10.8836L22.8566 11.6935V13.1158C22.8593 13.9077 22.8509 14.6996 22.8317 15.4913L22.8251 15.7019C22.8165 15.9462 22.8056 16.1861 22.7926 16.4749C22.7383 17.6312 22.5537 18.4183 22.2867 19.111C22.0144 19.8357 21.5872 20.4922 21.0349 21.0348C20.4924 21.5871 19.8358 22.0143 19.1111 22.2866C18.4195 22.5548 17.6313 22.7372 16.4762 22.7914L15.7032 22.824L15.4926 22.8305C14.9574 22.8457 14.3375 22.8533 13.1161 22.8555L12.3062 22.8566H10.8851C10.0928 22.8594 9.30057 22.8511 8.50855 22.8316L8.29794 22.8251C8.04021 22.8153 7.78254 22.8041 7.52495 22.7914C6.3698 22.7372 5.58162 22.5548 4.88896 22.2866C4.16465 22.0141 3.50849 21.5869 2.96626 21.0348C2.4136 20.4924 1.98603 19.8358 1.71341 19.111C1.44525 18.4194 1.26286 17.6312 1.20858 16.4749L1.17601 15.7019L1.17058 15.4913C1.15057 14.6996 1.14152 13.9077 1.14344 13.1158V10.8836C1.14043 10.0917 1.1484 9.29981 1.16732 8.50813L1.17492 8.29751C1.18361 8.05323 1.19447 7.81329 1.20749 7.5245C1.26178 6.36824 1.44417 5.58111 1.71233 4.88845C1.98558 4.16342 2.4139 3.50684 2.96735 2.96461C3.50926 2.41259 4.16503 1.9854 4.88896 1.71281C5.58162 1.44464 6.36872 1.26225 7.52495 1.20796C7.81373 1.19494 8.05475 1.18408 8.29794 1.17539L8.50855 1.16888C9.30021 1.14959 10.0921 1.14126 10.884 1.14391L13.1161 1.14282ZM12 6.57126C10.5604 6.57126 9.17965 7.14319 8.16165 8.16122C7.14365 9.17925 6.57174 10.56 6.57174 11.9997C6.57174 13.4394 7.14365 14.8202 8.16165 15.8382C9.17965 16.8562 10.5604 17.4281 12 17.4281C13.4397 17.4281 14.8204 16.8562 15.8384 15.8382C16.8564 14.8202 17.4283 13.4394 17.4283 11.9997C17.4283 10.56 16.8564 9.17925 15.8384 8.16122C14.8204 7.14319 13.4397 6.57126 12 6.57126ZM12 8.74264C12.4277 8.74257 12.8513 8.82674 13.2465 8.99036C13.6416 9.15398 14.0007 9.39383 14.3032 9.69623C14.6057 9.99862 14.8457 10.3576 15.0094 10.7528C15.1732 11.1479 15.2575 11.5714 15.2576 11.9992C15.2576 12.4269 15.1735 12.8504 15.0098 13.2456C14.8462 13.6408 14.6064 13.9999 14.304 14.3024C14.0016 14.6049 13.6426 14.8449 13.2475 15.0086C12.8523 15.1724 12.4288 15.2567 12.0011 15.2568C11.1373 15.2568 10.3089 14.9136 9.69809 14.3028C9.08729 13.692 8.74414 12.8635 8.74414 11.9997C8.74414 11.1359 9.08729 10.3074 9.69809 9.69661C10.3089 9.08579 11.1373 8.74264 12.0011 8.74264M17.7008 4.94273C17.3409 4.94273 16.9957 5.08571 16.7412 5.34022C16.4867 5.59473 16.3438 5.93991 16.3438 6.29984C16.3438 6.65977 16.4867 7.00495 16.7412 7.25946C16.9957 7.51397 17.3409 7.65695 17.7008 7.65695C18.0608 7.65695 18.4059 7.51397 18.6604 7.25946C18.9149 7.00495 19.0579 6.65977 19.0579 6.29984C19.0579 5.93991 18.9149 5.59473 18.6604 5.34022C18.4059 5.08571 18.0608 4.94273 17.7008 4.94273Z" fill="#F3EFF5"/>
</svg>
