<svg width="24" height="24" viewBox="0 0 24 24" fill="none" xmlns="http://www.w3.org/2000/svg">
<path d="M23 6.18254C23 5.64458 22.5639 5.2085 22.026 5.2085L1.97404 5.2085C1.43625 5.2085 1 5.64458 1 6.18254L1.033 17.7758C1.03297 17.7788 1.03283 17.7818 1.03283 17.7848C1.03283 18.3226 1.46891 18.7589 2.00687 18.7589L9.30238 18.7916C9.84051 18.7916 10.2767 18.3554 10.2767 17.8176L11.026 12.6546L11.0422 12.6546C11.1247 12.2002 11.5218 11.8553 12 11.8553C12.4782 11.8553 12.8751 12.2002 12.9575 12.6546L12.974 12.6546L13.7233 17.8176C13.7233 18.3554 14.1596 18.7916 14.6974 18.7916L22.026 18.7589C22.5639 18.7589 23 18.3226 23 17.7848L23 6.18254ZM20.0174 12.6546C20.0174 14.0901 18.8538 15.2537 17.4182 15.2537C15.9825 15.2537 14.8189 14.0901 14.8189 12.6546C14.8189 11.219 15.9825 10.0555 17.4182 10.0555C18.8538 10.0555 20.0174 11.219 20.0174 12.6546ZM9.23787 12.6546C9.23787 14.0901 8.07412 15.2537 6.63876 15.2537C5.20305 15.2537 4.03939 14.0901 4.03939 12.6546C4.03939 11.219 5.20305 10.0555 6.63876 10.0555C8.07412 10.0555 9.23787 11.219 9.23787 12.6546Z" fill="#F3EFF5"/>
</svg>
