<svg width="24" height="15" viewBox="0 0 24 15" fill="none" xmlns="http://www.w3.org/2000/svg">
<path d="M23 1.68254C23 1.14458 22.5639 0.708497 22.026 0.708497L1.97404 0.708496C1.43625 0.708496 1 1.14458 1 1.68254L1.033 13.2758C1.03297 13.2788 1.03283 13.2818 1.03283 13.2848C1.03283 13.8226 1.46891 14.2589 2.00687 14.2589L9.30238 14.2916C9.84051 14.2916 10.2767 13.8554 10.2767 13.3176L11.026 8.15458L11.0422 8.15458C11.1247 7.70019 11.5218 7.35529 12 7.35529C12.4782 7.35529 12.8751 7.70019 12.9575 8.15458L12.974 8.15458L13.7233 13.3176C13.7233 13.8554 14.1596 14.2916 14.6974 14.2916L22.026 14.2589C22.5639 14.2589 23 13.8226 23 13.2848L23 1.68254ZM20.0174 8.15458C20.0174 9.59012 18.8538 10.7537 17.4182 10.7537C15.9825 10.7537 14.8189 9.59012 14.8189 8.15458C14.8189 6.71904 15.9825 5.55546 17.4182 5.55546C18.8538 5.55546 20.0174 6.71904 20.0174 8.15458ZM9.23787 8.15458C9.23787 9.59012 8.07412 10.7537 6.63876 10.7537C5.20305 10.7537 4.03939 9.59012 4.03939 8.15458C4.03939 6.71904 5.20305 5.55546 6.63876 5.55546C8.07412 5.55546 9.23787 6.71904 9.23787 8.15458Z" fill="#F3EFF5"/>
</svg>
