<svg width="24" height="24" viewBox="0 0 24 24" fill="none" xmlns="http://www.w3.org/2000/svg">
<path d="M17.904 1.14502H6.09601C4.78293 1.14502 3.52362 1.66664 2.59513 2.59513C1.66664 3.52362 1.14502 4.78293 1.14502 6.09601V17.904C1.14502 19.2171 1.66664 20.4764 2.59513 21.4049C3.52362 22.3334 4.78293 22.855 6.09601 22.855H17.904C19.2171 22.855 20.4764 22.3334 21.4049 21.4049C22.3334 20.4764 22.855 19.2171 22.855 17.904V6.09601C22.855 4.78293 22.3334 3.52362 21.4049 2.59513C20.4764 1.66664 19.2171 1.14502 17.904 1.14502ZM8.48523 18.6711C8.48872 18.7317 8.47978 18.7924 8.45897 18.8494C8.43816 18.9064 8.40591 18.9586 8.3642 19.0027C8.3225 19.0468 8.27221 19.0819 8.21644 19.1059C8.16067 19.1298 8.10059 19.1422 8.03989 19.1421H6.05816C5.93865 19.1391 5.82505 19.0895 5.74178 19.0037C5.65851 18.9179 5.61221 18.8029 5.61283 18.6834V10.4414C5.61119 10.3818 5.6215 10.3226 5.64314 10.2672C5.66479 10.2117 5.69733 10.1612 5.73885 10.1185C5.78037 10.0758 5.83002 10.0419 5.88486 10.0188C5.9397 9.99566 5.99863 9.98375 6.05816 9.98377H8.03989C8.09942 9.98375 8.15835 9.99566 8.21319 10.0188C8.26804 10.0419 8.31768 10.0758 8.3592 10.1185C8.40072 10.1612 8.43326 10.2117 8.45491 10.2672C8.47655 10.3226 8.48686 10.3818 8.48523 10.4414V18.6711ZM7.01229 8.25031C6.79773 8.2487 6.58559 8.20485 6.38798 8.12126C6.19038 8.03767 6.01117 7.91597 5.86059 7.76312C5.71001 7.61027 5.59102 7.42926 5.5104 7.23042C5.42978 7.03158 5.38911 6.81881 5.39072 6.60425C5.39232 6.38969 5.43618 6.17756 5.51977 5.97995C5.60336 5.78234 5.72506 5.60313 5.87791 5.45255C6.03076 5.30198 6.21177 5.18298 6.41061 5.10236C6.60945 5.02174 6.82222 4.98107 7.03678 4.98268C7.46265 4.99653 7.86625 5.17626 8.16145 5.48352C8.45666 5.79078 8.6201 6.20124 8.61691 6.62733C8.61371 7.05341 8.44413 7.46137 8.14435 7.76417C7.84456 8.06697 7.43832 8.24063 7.01229 8.24809M19.0552 18.6578C19.0547 18.7702 19.0105 18.8781 18.932 18.9587C18.8535 19.0393 18.7468 19.0863 18.6344 19.0897H16.5424C16.4298 19.0863 16.3229 19.0391 16.2444 18.9583C16.1659 18.8775 16.1218 18.7693 16.1216 18.6566V14.8446C16.1216 14.2757 16.2953 12.3696 14.6119 12.3696C13.2993 12.3696 13.0399 13.7056 12.9898 14.3002V18.7435C12.9898 18.8564 12.9459 18.9648 12.8674 19.0459C12.7888 19.1269 12.6818 19.1742 12.5689 19.1777H10.5393C10.4244 19.1774 10.3142 19.1315 10.233 19.0501C10.1518 18.9687 10.1062 18.8584 10.1062 18.7435V10.4013C10.1097 10.2884 10.157 10.1814 10.238 10.1028C10.3191 10.0243 10.4276 9.98038 10.5404 9.98043H12.5689C12.6818 9.98038 12.7903 10.0243 12.8713 10.1028C12.9524 10.1814 12.9997 10.2884 13.0031 10.4013V11.1194C13.2993 10.6859 13.7082 10.3414 14.1858 10.1233C14.6633 9.9051 15.1914 9.82145 15.713 9.88135C19.092 9.88135 19.0797 13.0376 19.0797 14.8323L19.0552 18.6578Z" fill="#4BDBAB"/>
</svg>
